<?xml version="1.0" standalone="no"?>
<!DOCTYPE svg PUBLIC "-//W3C//DTD SVG 20010904//EN"
 "http://www.w3.org/TR/2001/REC-SVG-20010904/DTD/svg10.dtd">
<svg version="1.0" xmlns="http://www.w3.org/2000/svg"
 width="1365.000000pt" height="1397.000000pt" viewBox="0 0 1365.000000 1397.000000"
 preserveAspectRatio="xMidYMid meet">

<g transform="translate(0.000000,1397.000000) scale(0.100000,-0.100000)"
fill="#000000" stroke="none">
<path d="M5120 13949 c-1729 -104 -3304 -1026 -4245 -2484 -608 -941 -912
-2076 -857 -3191 46 -913 282 -1716 735 -2499 727 -1257 1970 -2187 3390
-2535 1386 -339 2823 -132 4052 583 66 39 132 77 147 86 l28 16 1957 -1957
c1077 -1077 1963 -1958 1968 -1958 13 0 1345 1332 1345 1345 0 6 -868 878
-1929 1939 l-1930 1930 45 60 c566 776 912 1649 1023 2586 245 2045 -673 4037
-2384 5178 -529 352 -1095 601 -1708 752 -538 131 -1091 182 -1637 149z m611
-1279 c716 -54 1361 -264 1944 -633 738 -467 1306 -1148 1633 -1957 499 -1239
372 -2659 -341 -3785 -663 -1048 -1753 -1742 -2982 -1899 -1048 -134 -2104
129 -2955 737 -643 460 -1142 1094 -1438 1827 -499 1239 -372 2659 341 3785
760 1200 2066 1923 3493 1934 93 0 231 -4 305 -9z"/>
</g>
</svg>
